<svg width="24" height="24" viewBox="0 0 24 24" fill="none" xmlns="http://www.w3.org/2000/svg">
<path d="M20.7701 14.7831L19.1552 13.8407C19.3182 12.952 19.3182 12.0403 19.1552 11.1516L20.7701 10.2093C20.9558 10.102 21.0392 9.87985 20.9786 9.67299C20.5578 8.30929 19.8413 7.07583 18.905 6.04922C18.7609 5.89216 18.5259 5.85386 18.3439 5.96111L16.729 6.90345C16.0504 6.31353 15.2695 5.85769 14.4241 5.5589V3.67806C14.4241 3.46354 14.2763 3.27584 14.0678 3.22987C12.6765 2.91576 11.2511 2.93108 9.92811 3.22987C9.71961 3.27584 9.57176 3.46354 9.57176 3.67806V5.56273C8.73018 5.86535 7.94926 6.32119 7.26689 6.90728L5.65576 5.96494C5.47001 5.85769 5.23876 5.89216 5.09471 6.05305C4.15835 7.07583 3.44187 8.30929 3.02108 9.67683C2.95664 9.88368 3.04383 10.1059 3.22958 10.2131L4.84451 11.1554C4.6815 12.0442 4.6815 12.9558 4.84451 13.8446L3.22958 14.7869C3.04383 14.8941 2.96043 15.1163 3.02108 15.3232C3.44187 16.6869 4.15835 17.9203 5.09471 18.947C5.23876 19.104 5.4738 19.1423 5.65576 19.0351L7.27068 18.0927C7.94926 18.6826 8.73018 19.1385 9.57555 19.4373V21.3219C9.57555 21.5365 9.7234 21.7242 9.9319 21.7701C11.3232 22.0842 12.7485 22.0689 14.0716 21.7701C14.2801 21.7242 14.4279 21.5365 14.4279 21.3219V19.4373C15.2695 19.1347 16.0504 18.6788 16.7328 18.0927L18.3477 19.0351C18.5335 19.1423 18.7647 19.1078 18.9088 18.947C19.8451 17.9242 20.5616 16.6907 20.9824 15.3232C21.0392 15.1125 20.9558 14.8903 20.7701 14.7831V14.7831ZM11.9979 15.5607C10.3262 15.5607 8.96522 14.1855 8.96522 12.4962C8.96522 10.8069 10.3262 9.43166 11.9979 9.43166C13.6697 9.43166 15.0307 10.8069 15.0307 12.4962C15.0307 14.1855 13.6697 15.5607 11.9979 15.5607Z" fill="#777777"/>
</svg>
