<svg width="12" height="13" viewBox="0 0 12 13" fill="none" xmlns="http://www.w3.org/2000/svg">
<path d="M7.25 2.91371C6.9375 2.91371 6.71429 2.6905 6.71429 2.378C6.71429 2.08782 6.9375 1.84229 7.25 1.84229H10.4643C10.7545 1.84229 11 2.08782 11 2.378V5.59229C11 5.90479 10.7545 6.128 10.4643 6.128C10.1518 6.128 9.92857 5.90479 9.92857 5.59229V3.67264L5.46429 8.11461C5.26339 8.33782 4.92857 8.33782 4.72768 8.11461C4.50446 7.91371 4.50446 7.57889 4.72768 7.35568L9.16964 2.91371H7.25ZM1 3.80657C1 3.13693 1.55804 2.55657 2.25 2.55657H4.75C5.04018 2.55657 5.28571 2.80211 5.28571 3.09229C5.28571 3.40479 5.04018 3.628 4.75 3.628H2.25C2.13839 3.628 2.07143 3.71729 2.07143 3.80657V10.5923C2.07143 10.7039 2.13839 10.7709 2.25 10.7709H9.03571C9.125 10.7709 9.21429 10.7039 9.21429 10.5923V8.09229C9.21429 7.80211 9.4375 7.55657 9.75 7.55657C10.0402 7.55657 10.2857 7.80211 10.2857 8.09229V10.5923C10.2857 11.2842 9.70536 11.8423 9.03571 11.8423H2.25C1.55804 11.8423 1 11.2842 1 10.5923V3.80657Z" fill="#4171D0"/>
</svg>
