<svg width="24" height="23" viewBox="0 0 24 23" fill="none" xmlns="http://www.w3.org/2000/svg">
<path d="M20.2943 18.6721L16.2044 14.5822C16.1269 14.5047 16.0258 14.4643 15.918 14.4643H15.4733C16.5346 13.2346 17.178 11.6343 17.178 9.88247C17.178 6.01152 14.0415 2.875 10.1706 2.875C6.2996 2.875 3.16309 6.01152 3.16309 9.88247C3.16309 13.7534 6.2996 16.8899 10.1706 16.8899C11.9224 16.8899 13.5227 16.2465 14.7524 15.1852V15.6299C14.7524 15.7378 14.7962 15.8388 14.8703 15.9163L18.9602 20.0062C19.1186 20.1646 19.3746 20.1646 19.5329 20.0062L20.2943 19.2449C20.4527 19.0865 20.4527 18.8305 20.2943 18.6721ZM10.1706 15.2728C7.19238 15.2728 4.78019 12.8606 4.78019 9.88247C4.78019 6.90429 7.19238 4.49211 10.1706 4.49211C13.1487 4.49211 15.5609 6.90429 15.5609 9.88247C15.5609 12.8606 13.1487 15.2728 10.1706 15.2728Z" fill="#7D7D7D"/>
</svg>
