<svg width="23" height="23" viewBox="0 0 23 23" fill="none" xmlns="http://www.w3.org/2000/svg">
<path d="M21.4866 19.0848L16.4554 9.02228C16.3957 8.9029 16.3039 8.8025 16.1904 8.73233C16.0768 8.66217 15.946 8.625 15.8125 8.625C15.679 8.625 15.5482 8.66217 15.4346 8.73233C15.3211 8.8025 15.2293 8.9029 15.1696 9.02228L13.2203 12.9211C11.6909 12.8359 10.2192 12.3085 8.98391 11.4027C10.4324 9.85649 11.3103 7.8625 11.4726 5.75H13.6563C13.8469 5.75 14.0297 5.67427 14.1645 5.53948C14.2993 5.40469 14.375 5.22187 14.375 5.03125C14.375 4.84063 14.2993 4.65781 14.1645 4.52302C14.0297 4.38823 13.8469 4.3125 13.6563 4.3125H8.625V2.875C8.625 2.68438 8.54928 2.50156 8.41448 2.36677C8.27969 2.23198 8.09687 2.15625 7.90625 2.15625C7.71563 2.15625 7.53281 2.23198 7.39802 2.36677C7.26323 2.50156 7.1875 2.68438 7.1875 2.875V4.3125H2.15625C1.96563 4.3125 1.78281 4.38823 1.64802 4.52302C1.51323 4.65781 1.4375 4.84063 1.4375 5.03125C1.4375 5.22187 1.51323 5.40469 1.64802 5.53948C1.78281 5.67427 1.96563 5.75 2.15625 5.75H10.0295C9.86929 7.51144 9.12119 9.16778 7.90555 10.4525C7.14856 9.6533 6.56759 8.70422 6.20014 7.66655C6.16865 7.57757 6.11994 7.49566 6.0568 7.42551C5.99366 7.35536 5.91732 7.29832 5.83213 7.25767C5.74695 7.21702 5.65459 7.19355 5.56034 7.18859C5.46608 7.18363 5.37177 7.19729 5.2828 7.22878C5.19382 7.26027 5.11191 7.30897 5.04176 7.37212C4.9716 7.43526 4.91457 7.5116 4.87392 7.59679C4.83327 7.68197 4.8098 7.77432 4.80484 7.86858C4.79988 7.96284 4.81354 8.05715 4.84503 8.14612C5.27416 9.35769 5.94966 10.4672 6.82893 11.4047C5.47529 12.402 3.83762 12.9392 2.15625 12.9375C1.96563 12.9375 1.78281 13.0132 1.64802 13.148C1.51323 13.2828 1.4375 13.4656 1.4375 13.6562C1.4375 13.8469 1.51323 14.0297 1.64802 14.1645C1.78281 14.2993 1.96563 14.375 2.15625 14.375C4.24164 14.3771 6.26721 13.6781 7.90743 12.3903C9.24585 13.4356 10.8435 14.0969 12.5291 14.3033L10.1384 19.0848C10.0531 19.2553 10.0391 19.4527 10.0994 19.6335C10.1596 19.8143 10.2893 19.9638 10.4598 20.0491C10.6303 20.1344 10.8277 20.1484 11.0085 20.0881C11.1894 20.0279 11.3388 19.8982 11.4241 19.7277L12.663 17.25H18.962L20.2009 19.7277C20.2862 19.8982 20.4357 20.0279 20.6165 20.0881C20.7973 20.1484 20.9947 20.1344 21.1652 20.0491C21.3357 19.9638 21.4654 19.8144 21.5256 19.6335C21.5859 19.4527 21.5719 19.2553 21.4866 19.0848ZM13.3817 15.8125L15.8125 10.9509L18.2433 15.8125H13.3817Z" fill="#4171D0"/>
</svg>
